<?xml version="1.0" encoding="UTF-8" standalone="no"?>
<svg viewBox="0 0 256 256" version="1.1" xmlns="http://www.w3.org/2000/svg" xmlns:xlink="http://www.w3.org/1999/xlink">
    <defs>
        <linearGradient x1="50%" y1="0%" x2="50%" y2="100%" id="steamGradient">
            <stop stop-color="#00ADEE" offset="0%"></stop>
            <stop stop-color="#000B67" offset="100%"></stop>
        </linearGradient>
    </defs>
    <g id="Steam-Logo" fill="url(#steamGradient)" stroke="none">
        <path d="M128,0 C57.28,0 0,57.28 0,128 C0,198.72 57.28,256 128,256 C198.72,256 256,198.72 256,128 C256,57.28 198.72,0 128,0 Z M112,153.6 C112,158.4 107.2,163.2 102.4,163.2 C97.6,163.2 92.8,158.4 92.8,153.6 C92.8,148.8 97.6,144 102.4,144 C107.2,144 112,148.8 112,153.6 Z M160,105.6 C160,120 148.4,132 133.6,132 C118.8,132 107.2,120 107.2,105.6 C107.2,90.8 118.8,79.2 133.6,79.2 C148.4,79.2 160,90.8 160,105.6 Z M175.2,105.6 C175.2,82.4 156.8,64 133.6,64 C110.4,64 92,82.4 92,105.6 C92,128.8 110.4,147.2 133.6,147.2 C156.8,147.2 175.2,128.8 175.2,105.6 Z" id="Shape" fill="#FFFFFF"></path>
        <path d="M170,105.6 C170,89.6 156.4,76 140.4,76 C124.4,76 110.8,89.6 110.8,105.6 C110.8,121.6 124.4,135.2 140.4,135.2 C156.4,135.2 170,121.6 170,105.6 Z" id="Path" fill="#FFFFFF"></path>
    </g>
</svg>