<?xml version="1.0" encoding="UTF-8"?>
<svg width="512" height="512" viewBox="0 0 512 512" version="1.1" xmlns="http://www.w3.org/2000/svg">
    <g id="Epic-Games-Logo" fill="#000000" stroke="none">
        <path d="M344.32,0H512V512H0V0H167.68V97.69H97.69V414.31H414.31V97.69H344.32V0Z" />
        <path d="M212.36,146.51H140.65V366.4h28.08V284.75h43.64c46.83,0,77.96-28.08,77.96-69.12C290.32,174.59,259.2,146.51,212.36,146.51ZM208.45,257.39H168.72V173.87h39.72c28.08,0,45.55,15.02,45.55,41.66C254,241.65,236.53,257.39,208.45,257.39Z" />
        <path d="M371.36,146.51H343.2V366.4h28.16V265.93l81.72,100.47h35.12l-89.82-107.71,83.13-98.79h-33.98l-76.17,90.42V146.51Z" />
    </g>
</svg>