<?xml version="1.0" encoding="UTF-8"?>
<svg width="512" height="512" viewBox="0 0 512 512" version="1.1" xmlns="http://www.w3.org/2000/svg">
    <defs>
        <linearGradient id="steamGradient" x1="0%" y1="0%" x2="0%" y2="100%">
            <stop offset="0%" style="stop-color:#111D2E;stop-opacity:1" />
            <stop offset="100%" style="stop-color:#1387B8;stop-opacity:1" />
        </linearGradient>
    </defs>
    <g id="Steam-Logo" fill="url(#steamGradient)">
        <circle cx="256" cy="256" r="256" fill="url(#steamGradient)"/>
        <path d="M183.9,376.6c-6.6,0-12.1-2.6-15.5-7.7l-31.4,12.8c2.8,14.5,15.6,25.4,31.3,25.4c17.3,0,31.3-14,31.3-31.3c0-1.5-0.1-3-0.3-4.5L169,358.9C168.9,368.8,177.2,376.6,183.9,376.6z" fill="#FFFFFF"/>
        <path d="M183.9,322.8c13.7,0,24.9,11.2,24.9,24.9c0,13.7-11.2,24.9-24.9,24.9c-1.7,0-3.3-0.2-4.9-0.5l15.3-6.2c10.1-4.1,14.9-15.6,10.8-25.7c-4.1-10.1-15.6-14.9-25.7-10.8l-15.6,6.4C164.9,327.2,173.8,322.8,183.9,322.8z" fill="#FFFFFF"/>
        <path d="M328.1,250.6c0,23.1-18.8,41.9-41.9,41.9c-23.1,0-41.9-18.8-41.9-41.9c0-23.1,18.8-41.9,41.9-41.9C309.3,208.6,328.1,227.4,328.1,250.6z" fill="#FFFFFF"/>
        <path d="M398,250.5c0,61.8-50.2,112-112,112c-58.9,0-107.1-45.5-111.7-103.3l52.6-21.5c0.7,23.4,20,42.1,43.5,42.1c24.1,0,43.6-19.5,43.6-43.6c0-24.1-19.5-43.6-43.6-43.6c-15.5,0-29.1,8.1-36.9,20.2l-53.8,22c-7.4-50.4,31.3-96.9,81.7-104.2c50.4-7.4,96.9,31.3,104.2,81.7C397.6,222.9,398,241.9,398,250.5z" fill="#FFFFFF"/>
        <path d="M268.1,250.5c0,9.5,7.7,17.3,17.3,17.3c9.5,0,17.3-7.7,17.3-17.3c0-9.5-7.7-17.3-17.3-17.3C275.9,233.2,268.1,241,268.1,250.5z" fill="url(#steamGradient)"/>
    </g>
</svg>